# xmcd
#
# Track frame offsets:
#	150
#	8984
#	23025
#	36077
#	47819
#	59055
#	69573
#	81771
#	94735
#	104122
#	112570
#	125963
#	136930
#	150188
#	162313
#	175730
#	186116
#	199224
#	211780
#	224412
#	234951
#	245615
#	257353
#	267318
#
# Disc length: 3714 seconds
#
# Revision: 0
# Processed by: cddbd v1.5.2PL0 Copyright (c) Steve Scherf et al.
# Submitted via: audiograbber 1.83.01
#
DISCID=4e0e8018
DTITLE=Cliff Richard and The Shadows - Supergold
DYEAR=1900
DGENRE=Pop
TTITLE0=Ready Teddy
TTITLE1=The Young Ones
TTITLE2=Apache
TTITLE3=Living Doll
TTITLE4=A Girl Like You
TTITLE5=Quatermaster's Stores
TTITLE6=Rote Lippen Soll Man Küssen (Lucky Lips)
TTITLE7=Don't Talk To Him
TTITLE8=Wonderful Land
TTITLE9=Boum
TTITLE10=Das Ist Die Frage Aller Fragen (Spanish Harlem)
TTITLE11=Foot Tapper
TTITLE12=Es War Keine So Wunderbar Wie Du
TTITLE13=Good News
TTITLE14=Guitar Tango
TTITLE15=The Minute You're Gone
TTITLE16=All My Love
TTITLE17=Atlantis
TTITLE18=Throw Down A Line
TTITLE19=Ein Sonntag Mit Marie (The Day I Met Marie)
TTITLE20=Blue Turns To Grey
TTITLE21=Theme For Young Lovers
TTITLE22=Good Times (Better Times)
TTITLE23=Congratulations
EXTD=
EXTT0=
EXTT1=
EXTT2=
EXTT3=
EXTT4=
EXTT5=
EXTT6=
EXTT7=
EXTT8=
EXTT9=
EXTT10=
EXTT11=
EXTT12=
EXTT13=
EXTT14=
EXTT15=
EXTT16=
EXTT17=
EXTT18=
EXTT19=
EXTT20=
EXTT21=
EXTT22=
EXTT23=
PLAYORDER=
